# xmcd
#
# Track frame offsets:
#	150
#	14087
#	26550
#	40307
#	56182
#	69875
#	82697
#	93492
#	108212
#	122075
#	136025
#	149600
#	159315
#	172067
#	185590
#	200192
#	214272
#	229017
#	246077
#	260552
#	274467
#
# Disc length: 3822 seconds
#
# Revision: 1
# Processed by: cddbd v1.5.1PL0 Copyright (c) Steve Scherf et al.
# Submitted via: audiograbber 1.83.01
#
DISCID=380eec15
DTITLE=Gregorio Barrios - Corazón a corazón Vol3
DYEAR=1900
DGENRE=Bolero
TTITLE0=Frio en la alma
TTITLE1=Suave es la noche
TTITLE2=Yo se que te he de amar
TTITLE3=Me viejo amor
TTITLE4=Muy cerca de ti
TTITLE5=Quien sera?
TTITLE6=Una mujer
TTITLE7=Quiereme mucho
TTITLE8=Espinita
TTITLE9=Juntos
TTITLE10=Cuando vuelva a tu lado
TTITLE11=Quien yo quiero no me quiere
TTITLE12=Plazos traicioneros
TTITLE13=Perdonar
TTITLE14=Sabra Dios
TTITLE15=Contigo en la distancia
TTITLE16=Maria Bonita
TTITLE17=Nosotros
TTITLE18=Guantanamera
TTITLE19=Nuestro juramento
TTITLE20=Corazón a corazón 
EXTD=
EXTT0=
EXTT1=
EXTT2=
EXTT3=
EXTT4=
EXTT5=
EXTT6=
EXTT7=
EXTT8=
EXTT9=
EXTT10=
EXTT11=
EXTT12=
EXTT13=
EXTT14=
EXTT15=
EXTT16=
EXTT17=
EXTT18=
EXTT19=
EXTT20=
PLAYORDER=
